<svg width="97" height="96" viewBox="0 0 97 96" fill="none" xmlns="http://www.w3.org/2000/svg">
<path d="M26.5656 55.1136C30.4944 55.1136 33.6793 51.9286 33.6793 47.9998C33.6793 44.0709 30.4944 40.886 26.5656 40.886C22.6367 40.886 19.4518 44.0709 19.4518 47.9998C19.4518 51.9286 22.6367 55.1136 26.5656 55.1136Z" fill="#80144E"/>
<path d="M70.4338 55.1136C74.3626 55.1136 77.5476 51.9286 77.5476 47.9998C77.5476 44.0709 74.3626 40.886 70.4338 40.886C66.505 40.886 63.32 44.0709 63.32 47.9998C63.32 51.9286 66.505 55.1136 70.4338 55.1136Z" fill="#80144E"/>
<path d="M48.4997 33.1321C52.4285 33.1321 55.6134 29.9471 55.6134 26.0183C55.6134 22.0894 52.4285 18.9045 48.4997 18.9045C44.5709 18.9045 41.3859 22.0894 41.3859 26.0183C41.3859 29.9471 44.5709 33.1321 48.4997 33.1321Z" fill="#80144E"/>
<path d="M48.4968 77.0952C52.4256 77.0952 55.6105 73.9103 55.6105 69.9814C55.6105 66.0526 52.4256 62.8677 48.4968 62.8677C44.568 62.8677 41.383 66.0526 41.383 69.9814C41.383 73.9103 44.568 77.0952 48.4968 77.0952Z" fill="#80144E"/>
<path fill-rule="evenodd" clip-rule="evenodd" d="M14.1267 50.1797C12.9229 48.9759 12.9229 47.024 14.1267 45.8202L46.3199 13.6269C47.5238 12.423 49.4756 12.423 50.6795 13.6269L82.8727 45.8202C84.0765 47.024 84.0765 48.9759 82.8727 50.1797L50.6795 82.373C49.4756 83.5769 47.5238 83.5769 46.32 82.373L14.1267 50.1797ZM48.4997 33.1321C50.2724 33.1321 51.8937 32.4837 53.1393 31.4111L65.063 43.3349C65.6935 42.6096 66.4684 42.0133 67.343 41.5908L54.8933 29.141C55.3546 28.1983 55.6134 27.1385 55.6134 26.0183C55.6134 22.0894 52.4285 18.9045 48.4997 18.9045C44.5709 18.9045 41.3859 22.0894 41.3859 26.0183C41.3859 29.9471 44.5709 33.1321 48.4997 33.1321ZM42.1063 29.1412L29.6567 41.5909C28.7219 41.1392 27.6733 40.886 26.5656 40.886C22.6367 40.886 19.4518 44.0709 19.4518 47.9998C19.4518 51.9286 22.6367 55.1136 26.5656 55.1136C27.6732 55.1136 28.7218 54.8605 29.6565 54.4089L42.1043 66.8567C42.5311 65.9851 43.1309 65.2137 43.859 64.5872L31.9365 52.6647C33.0222 51.4158 33.6793 49.7845 33.6793 47.9998C33.6793 46.2151 33.0222 44.584 31.9366 43.3351L43.8604 31.4113C43.1325 30.7845 42.5329 30.0129 42.1063 29.1412ZM54.8914 66.8608L67.3432 54.409C68.2778 54.8605 69.3262 55.1136 70.4338 55.1136C74.3626 55.1136 77.5476 51.9286 77.5476 47.9998C77.5476 44.0709 74.3626 40.886 70.4338 40.886C66.505 40.886 63.32 44.0709 63.32 47.9998C63.32 49.9142 64.0763 51.652 65.3062 52.9307C65.223 52.8442 65.1419 52.7555 65.0631 52.6649L53.1379 64.59C51.8922 63.5167 50.2702 62.8677 48.4968 62.8677C44.568 62.8677 41.383 66.0526 41.383 69.9814C41.383 73.9103 44.568 77.0952 48.4968 77.0952C52.4256 77.0952 55.6105 73.9103 55.6105 69.9814C55.6105 68.862 55.3521 67.803 54.8914 66.8608Z" fill="#F4BEDB"/>
<path d="M29.6567 41.5909C30.5312 42.0135 31.3062 42.6098 31.9366 43.3351L43.8604 31.4113C43.1325 30.7845 42.5329 30.0129 42.1063 29.1412L29.6567 41.5909Z" fill="#4D1935"/>
<path d="M54.8933 29.141C54.4668 30.0128 53.8672 30.7844 53.1393 31.4111L65.063 43.3349C65.6935 42.6096 66.4684 42.0133 67.343 41.5908L54.8933 29.141Z" fill="#4D1935"/>
<path d="M67.3432 54.409C66.4685 53.9864 65.6936 53.3901 65.0631 52.6649L53.1379 64.59C53.8657 65.2171 54.4651 65.9889 54.8914 66.8608L67.3432 54.409Z" fill="#4D1935"/>
<path d="M42.1043 66.8567C42.5311 65.9851 43.1309 65.2137 43.859 64.5872L31.9365 52.6647C31.3061 53.39 30.5311 53.9863 29.6565 54.4089L42.1043 66.8567Z" fill="#4D1935"/>
<path fill-rule="evenodd" clip-rule="evenodd" d="M6.23362 56.0612C1.78866 51.6162 1.78866 44.4095 6.23362 39.9645L40.4643 5.73376C44.9092 1.28879 52.1159 1.28878 56.5609 5.73375L90.7662 39.9392C95.2111 44.3841 95.2111 51.5909 90.7662 56.0358L56.5355 90.2666C52.0906 94.7115 44.8839 94.7116 40.4389 90.2666L6.23362 56.0612ZM8.2457 41.9766L42.4763 7.74584C45.8101 4.41211 51.2151 4.41211 54.5488 7.74583L88.7541 41.9512C92.0878 45.285 92.0878 50.69 88.7541 54.0237L54.5235 88.2545C51.1898 91.5882 45.7847 91.5882 42.451 88.2545L8.2457 54.0491C4.91198 50.7154 4.91198 45.3103 8.2457 41.9766Z" fill="black"/>
<path fill-rule="evenodd" clip-rule="evenodd" d="M14.1267 45.8202C12.9229 47.024 12.9229 48.9759 14.1267 50.1797L46.32 82.373C47.5238 83.5769 49.4756 83.5769 50.6795 82.373L82.8727 50.1797C84.0765 48.9759 84.0765 47.024 82.8727 45.8202L50.6795 13.6269C49.4756 12.423 47.5238 12.423 46.3199 13.6269L14.1267 45.8202ZM12.2823 43.9758C10.0599 46.1983 10.0599 49.8017 12.2823 52.0241L44.4756 84.2175C46.698 86.44 50.3014 86.44 52.5239 84.2175L84.7171 52.0241C86.9396 49.8017 86.9396 46.1983 84.7171 43.9758L52.5239 11.7825C50.3014 9.56 46.698 9.56 44.4756 11.7825L12.2823 43.9758Z" fill="#4D1935"/>
</svg>
